# xmcd
#
# Track frame offsets:
#	183
#	9668
#	32733
#	49448
#	61070
#	77733
#	93108
#	104845
#	123410
#	136345
#	149208
#	169170
#	180415
#	196858
#	209503
#	224468
#	248043
#	266613
#	284008
#	298353
#
# Disc length: 4205 seconds
#
# Revision: 0
# Processed by: cddbd v1.4PL0 Copyright (c) Steve Scherf et al.
# Submitted via: AudioConverter v4.05 Copyright (c) Dennis Rebentrost
#
DISCID=41106b14
DTITLE=Gilbert B_caud - 40 ans en chansons
DYEAR=1993
DGENRE=
TTITLE0=Quand tu danses
TTITLE1=Le pianiste de Varsovie
TTITLE2=Les march_s de Provence
TTITLE3=Je veux te dire adieu
TTITLE4=Et maintenant
TTITLE5=Dimanche - Orly
TTITLE6=Quand Jules est au violon
TTITLE7=Nathalie
TTITLE8=L'orange
TTITLE9=Tu le regretteras
TTITLE10=T'es venu de loin
TTITLE11=Quand il est mort le po_te
TTITLE12=L'important c'est la rose
TTITLE13=Le petit oiseau de toute les couleurs
TTITLE14=La solitude, - a n'existe pas
TTITLE15=Charlie, t'iras pas au paradis
TTITLE16=L'indiff_rence
TTITLE17=D_sir_e
TTITLE18=C'_tait mon copain
TTITLE19=C'est en septembre
EXTD=
EXTT0=
EXTT1=
EXTT2=
EXTT3=
EXTT4=
EXTT5=
EXTT6=
EXTT7=
EXTT8=
EXTT9=
EXTT10=
EXTT11=
EXTT12=
EXTT13=
EXTT14=
EXTT15=
EXTT16=
EXTT17=
EXTT18=
EXTT19=
PLAYORDER=
